<svg height="234.520788" viewBox="0 0 100 54.879738" width="426.401433" xmlns="http://www.w3.org/2000/svg"><g fill-rule="evenodd"><path d="m0 0c-.104.058-.147.101-.26.159-.102.029-.202.058-.303.088-.701.328-1.036.76-1.416 1.368-.358.776-.686 1.57-.845 2.381-.204.576-.42 1.164-.677 1.677-.035.035-.047.03-.081.027-.23-.768-.562-1.48-.909-2.224-.241-.607-.306-1.297-.487-1.949-.056-.282-.036-.714-.459-.585-.046.095-.029.319-.039.413-.051.081-.051.081-.088.162 0 .225.003.449.006.674.017.016.036.028.056.042.041.354.087.707.134 1.062.022.384.022.669.042.822.023.087.175 1.082.194 1.278.13.779.299 1.569.316 2.338-.02.18-.244.309-.316.435-.047.349.023.313.354.439.19.134.235.167.319.374.088.521.088.521.13.715.042.14.153.41.205.586 0 .243-.245.217-.072.447v.056c-.074.074-.081.133-.074.205.418.162.607.409.734.831.12.06.224-.11.342-.182.344 0 .757.212 1.137.305.084.034.171.065.26.099h.821c.108-.046.108-.046.693-.218.318-.136.519-.26.787-.549.178-.27.353-.641.227-.994-.176-.384-.377-.884-.654-1.239-.217-.147-.292-.289-.448-.509-.185-.219-.185-.219-.205-.258-.039-.02-.103-.085-.299-.237-.263-.172-.525-.331-.792-.472-.208-.087-.478-.185-.572-.229-.214-.15-.078-.358.149-.459.058-.111.117-.221.176-.334.139-.348.276-.715.413-1.106.224-.955.255-1.933.454-2.925.134-.461.224-.916.456-1.376.294-.443.572-.478 1.101-.5.126-.018.63-.041.442-.326-.081-.059-.081-.059-.228-.196-.176-.015-.497-.009-.636-.109-.03 0-.059-.003-.088-.007m-14.786.227c-.062.04-.123.075-.185.11v.02c-.224.111-.274.157-.401.326-.162.112-.337.152-.477.213-.039.033-.227.18-.236.222h-.023c-.41.569-.699.899-.699 1.612.087.292.087.292.171.649.076.699.469 1.415.742 2.044.042.039.087.076.133.111.211.568.601 1.003.88 1.517-.005.033-.009.061-.013.092-.152-.02-.311-.274-.402-.387-.121-.098-.376-.319-.523-.3-.091.185.153.316.269.394.205.243.313.543.442.809-.029.175-.269.023-.351.006-.244 0-.656-.046-.845.037v.022c-.082.071-.146.11-.211.143-.238.201-.315.543-.39.799-.025.364-.09.69-.022 1.03.133.413.291.798.445 1.19.37.565.698 1.095 1.166 1.579.175.13.215.134.28.318.312.163.562.453.838.672.088.057.088.057.29.157.684.452.684.452.822.53.071.015.143.032.217.046.26.172.394.317.714.39h.726c.058-.031.146-.105.222-.17.152-.085.304-.168.46-.254.377-.376-.116-.298-.165-.373-.03-.267-.079-.542-.153-.816-.134-.339-.589-.5-.904-.588-.289-.055-.519-.087-.769-.218-.699-.501-1.496-.883-2.061-1.537-.237-.337-.514-.659-.738-1.008-.116-.269-.139-.292-.15-.321-.064 0-.175-.211-.207-.263-.016-.075-.045-.126-.006-.225.321 0 .655-.022.994.04.621.175 1.241.39 1.875.542.445.131.939.212 1.342.478h.5c.186-.074.279-.221.449-.383.031-.104.068-.202.031-.351-.174-.176-.454-.235-.649-.354-.108-.143-.172-.423-.249-.609-.121-.22-.3-.379-.495-.549-.11-.184-.273-.288-.442-.426-.301-.353-.521-.776-.764-1.169-.306-.421-.711-.77-.988-1.215-.081-.165-.158-.331-.236-.498-.062-.091-.234-.285-.38-.477-.26-.51-.462-1.033-.702-1.56 0-.383.672-.285.926-.285.496.181 1.041.429 1.53.657.754.385 1.475.844 2.134 1.376.154.095.835.505.835.68-.044.12-.044.12-.087.293v1.569c.144.561.219 1.157.326 1.712.106.452.244.878.393 1.296.1.211.211.514.347.68.169.072.283.188.426.295.273 0 .234-.269.263-.505.082-.199.195-.405.269-.651 0-.318.047-.644-.064-.976-.095-.197-.188-.259-.075-.487-.012-.152-.11-.344-.163-.52-.068-.439-.11-.874-.172-1.332-.022-.036-.045-.072-.065-.107 0-.133-.041-.442.026-.578.189-.231.157-.199-.026-.471 0-.315.592.283.624.291.007.026.053.073.157.248.185.429.298.913.409 1.345.003.634.006 1.264.013 1.895.133.536.207 1.056.369 1.566.268.335.164.324.59.324.016-.016.032-.031.048-.048.007-.289-.045-.663.075-.965.023-.445.023-.445.042-.562.104-.237.228-.449.305-.738.039-.286.069-.683.215-.976.013-.324.013-.324.013-1.6-.023-.034-.045-.065-.065-.097-.14-.683-.321-1.132-.796-1.672-.123-.097-.246-.199-.37-.298-.065-.072-.196-.257-.261-.332-.09-.072-.198-.13-.289-.176-.321-.061-.683-.048-.975-.009-.348.12-.514.364-.77.563-.199.106-.263.146-.451.05-.179-.168-.371-.378-.492-.587-.058-.019-.09-.059-.106-.107-.01-.004-.02-.007-.03-.01-.194-.189-.38-.379-.565-.588-.195-.098-.28-.212-.393-.393-.048-.033-.098-.065-.146-.1-.234-.3-.426-.486-.725-.716-.299-.191-.62-.38-.916-.545v-.02c-.049-.033-.131-.123-.238-.212-.422-.1-.854-.208-1.267-.224m25.889.209c-.025.012-.051.022-.078.032-.042.227-.103.451-.103.659.045.088.045.088.077.196.042.558.455 1.02.67 1.527.166.317.4.543.614.822h.022c0 .055.521.601.572.617v.022c.023.011.065.062.144.131.168.178.218.214.256.267.267.23.572.416.875.613.067.058.74.653.721.737-.104.034-.27-.009-.358-.019-.359-.006-.63-.006-.942.121-.283.059-.558.243-.751.392-.115.225-.234.447-.347.667-.131.373-.137.611-.143.983.084.616.084.616.13.875.225.664.663 1.207 1.15 1.693.208.034.214.14.325.326.12 0 .146-.11.219-.233.022-.014.022-.014.093-.008.068.081.108.17.143.25.342.097.712-.049 1.044-.208v-.022c.367-.194.918-.897.636-1.368-.387-.244-.783-.365-1.195-.494-.095-.091-.095-.091-.143-.153-.297-.192-.498-.327-.731-.577-.193-.255-.716-.804-.258-1.091.023-.038.068-.077.13-.122h.585c.312.206.813.041 1.192.204.206.01.206.01.963 0 .273-.068.529-.329.642-.615-.002-.158-.012-.331-.051-.505-.12-.251-.237-.502-.353-.755-.053-.042-.105-.087-.157-.133-.273-.168-.569-.28-.812-.465-.147-.171-.258-.312-.374-.513-.159-.123-.339-.289-.494-.409-.231-.156-.435-.302-.636-.475-.332-.178-.663-.338-.943-.585-.075-.093-.147-.172-.251-.208-.507-.338-.815-.854-1.343-1.157-.066-.048-.135-.1-.204-.151-.093-.235-.194-.674-.425-.846-.039-.007-.074-.014-.111-.022m19.758.171c-.624.082-1.213.361-1.619.797-.231.318-.227.341-.259.351-.257.337-.45.659-.611.997-.355 1.202-.491 2.434-.692 3.63-.058.497-.124 1-.238 1.462-.055.156-.315.771-.48.714-.153-.497-.315-1.023-.452-1.539-.172-.887-.172-.887-.26-1.397-.139-.982-.258-2.083-.552-3.064-.004-.394-.007-.788-.01-1.18-.04-.104-.078-.213-.105-.341-.097-.06-.211-.115-.301-.154-.552-.054-.806.606-.917.992-.042.675-.023 1.346-.023 1.992-.005.013-.009.026-.012.036-.078 0-.073-.017-.115-.052-.396-.482-.786-.875-1.305-1.223-.306-.179-.582-.298-.901-.412-.279-.052-.764.042-.958.202-.143.171-.338.256-.446.399-.019.046-.035.087-.051.13-.284.475-.391.899-.478 1.397-.019.146-.039.289-.055.433v.812c.08.793.21 1.294.567 1.989.098.175.199.35.3.525 0 .296-.318.225-.413.368-.039.217-.01.387.091.559.25.214.633.133.968.129.228.197.339.505.566.69.094.055.442.264.54.208 0-.231-.196-.5-.319-.701-.166-.388-.254-.411.056-.736.252-.171.493-.305.802-.445.104-.081.286-.253.345-.321.419-.364.733-.634 1.042-1.148h.042c.203.819.416 1.603.667 2.383.097.23.195.461.296.689.376.25.96.187 1.411.185.227-.023.227-.023.434-.065.377-.118.64-.335.884-.68.09-.045.352-.471.442-.607.345-.728.413-1.736.53-2.555.042-.474.084-.951.129-1.429.014-.448.026-.898.042-1.345.101-.83.508-1.547 1.256-1.986.168-.075.34-.142.522-.262.085-.173.058-.326-.132-.41-.079-.004-.154-.009-.228-.017m-21.266.531c-.389.454-.585.987-.722 1.539v2.09c.03.123.059.247.089.367.094.867.286 1.729.594 2.525.176.605.424 1.268.533 1.875 0 .328-.161.63-.051.936.061.039.227.043.312-.014.454-.5 1.092-.893 1.331-1.595.011-.166-.012-.221-.087-.39-.002-.237-.006-.474-.01-.715-.126-.308-.201-.646-.282-.984-.176-.475-.367-.956-.563-1.443-.088-.13-.176-.261-.259-.39-.144-.312-.26-.643-.348-.985-.029-.279-.082-.601-.217-.877-.005-.468-.007-.936-.011-1.407-.02-.116-.074-.436-.166-.526-.048 0-.097-.003-.143-.006m-3.367.217c.138.019.262.061.41.114.517.393.894 1.25 1.09 1.858.023.141.023.141.152.627.003.536.006 1.07.01 1.603.14.812.269 1.647.487 2.426.146.359.286.698.357 1.049.15.391.44.7.673 1.041.163.338.163.338.368.728.253.383.253.383.314.503-.106.215-.415-.182-.415-.256-.01 0-.02-.004-.026-.007-.003-.007-.007-.015-.007-.026h-.023c-.262-.279-.558-.529-.802-.799-.036-.023-.052-.039-.075-.078h-.022c0-.019-.023-.029-.043-.065h-.023c-1.111-1.378-1.602-3.123-2.054-4.809-.048-.091-.126-.25-.243-.134-.144.351-.136.628-.114.979.061.224.091.344.013.532 0 .413-.017.825-.032 1.203-.081.409-.176.757-.326 1.124-.25.384-.506.757-.811 1.043-.258.192-.528.4-.771.543-.22.068-.22.068-.351.124-.172.004-.341.006-.511.009-.103.072-.103.072-.172.098-.2 0-.351.052-.351-.183.186-.151.32-.297.498-.516.286-.48.464-1.043.649-1.615.088-.497.147-1.036.261-1.549.085-.474.085-.474.172-1.106.098-.497.152-.939.152-1.472.036-.269.073-.539.108-.812.173-.78.218-.943.238-1.072.152-.458.473-.975 1.036-1.033.064-.033.064-.033.184-.072m10.994.627c.228.02.228.02.251.031.049.307.032.307.208.534.435.663.652 1.466.899 2.196.112.206.3.367.413.567.02.106.02.106.066.236.045.173.119.659.318.732.341.247.413 1.098.461 1.435.11.223.003.3-.149.401-.065.061-.065.061-.123.139-.011.065-.014.17-.043.199-.373.005-.747.013-1.121.016-.016-.007-.03-.013-.042-.019-.007-.173.006-.193.08-.377 0-.205-.083-.413-.161-.618-.095-.146-.159-.22-.241-.357-.045-.195-.088-.391-.13-.586-.26-.653-.501-1.308-.724-1.995-.154-.594-.173-.724-.219-.877-.045-.328-.064-.654-.064-1.008.032-.133.064-.267.097-.398.062-.127.043-.212.224-.251m-15.88.552c-.354.104-.702.331-.933.562-.571.846-.653 1.694-.653 2.655.059.443.192.843.325 1.249.032.051.032.051.204.506.196.422.196.422.586 1.202.035.153.031.293.039.435.113.043.201.056.315.14.228.264.425.91.903.783.091-.051.133-.087.276-.103.079-.052.175-.299.231-.429.104-.445.081-1.004-.221-1.391-.108-.207-.321-.469-.133-.693.418-.211.418-.211.516-.276.293-.311.556-.757.697-1.195.019-.14.042-.279.064-.422 0-.362.016-.739-.045-1.126-.108-.213-.195-.447-.319-.675-.25-.328-.487-.705-.829-.936-.321-.159-.685-.244-1.023-.286m20.063 1.041c.766.032 1.426.435 2.053.883.066.111.097.143.364.526.036.27.026.537 0 .781-.248.688-.741 1.118-1.179 1.636-.139.105-.393.358-.527.199-.149-.51-.286-1.001-.575-1.485-.068-.223-.045-.451-.045-.708-.059-.289-.175-.598-.228-.911 0-.262.033-.539.065-.834.013-.029.01-.052.072-.087m-20.18.087c.457.078.634.416.88.789.085.173.134.365.185.533.089.654.117 1.82-.428 2.25-.03 0-.058-.004-.085-.007-.081-.312-.273-.647-.419-.965-.124-.426-.209-.862-.237-1.326.006-.289.012-.582.019-.875.013-.113.009-.272.085-.399m-3.955 4.819c.069.026.136.049.205.071.393.267.786.556 1.225.774.113.153.201.324.312.481.224.195.351.436.351.737-.091.091-.78.053-.956.036-.293-.067-.717-.163-.945-.325-.05-.191-.098-.386-.143-.582-.046-.302-.046-.302-.088-.769 0-.089-.043-.342.039-.423zm20.797 1.917c-.253.207-.263.488-.354.747 0 .228-.043.471.056.651.048.568.185 1.098.276 1.644.122.061.159.049.25-.094h.022c.011-.04.085-.141.173-.131-.039.283-.072.414-.065.433.023 0 .048 0 .074-.004.354-.194.718-.405 1.089-.633.13-.115.209-.234.325-.423.172-.487.195-.52.205-.575 0-.17.055-.51-.065-.672-.094-.377-.274-.513-.621-.663-.462-.114-.922-.224-1.365-.28m-6.489 1.42c-.107.039-.107.039-.205.095-.725.149-1.034.851-1.306 1.433-.111.289-.192.581-.261.854-.038.283-.126.494-.217.728-.022.15-.172.949-.354.857-.159-.336-.344-.691-.533-1.041-.26-.637-.472-1.327-.608-2.016-.058-.102-.224-.163-.299-.087-.009.155-.019.311-.025.467.129.822.174 1.041.194 1.222.18.953.326 1.891.478 2.827.003.053.007.104.01.153-.084.231-.253.24-.192.491.198.088.348.088.474.299.105.337.312.758.27 1.105-.136.435-.101.689.344.874.059.003.099.016.165-.017.243-.204.41-.113.714.007.103.023.208.045.311.065.468.009.468.009.584 0 .466-.084 1.028-.282 1.21-.809.025-.212.051-.436-.033-.673-.098-.156-.194-.315-.292-.474-.299-.393-.618-.683-1.024-.949-.276-.121-.543-.237-.803-.332 0-.114.04-.153.137-.291.068-.151.137-.304.204-.456.096-.335.179-.663.261-1.027.003-.37.006-.744.01-1.117.08-.326.123-.677.217-1.041.055-.143.111-.289.166-.435.108-.121.172-.156.352-.24.138-.023.399-.023.551-.112 0-.217-.328-.321-.5-.36m-19.345.488c.283.003.568.007.855.007.338.106.338.106.565.194.134.081.231.159.26.166v.022c.01.007.082.047.082.069.292.253.646.565.737.956.146.279.282.568.386.851.062.328.073.623.076.942.071.231.12.279.022.456v.584c.036.334.065.659.065.962-.009.175-.055.5-.055.598.103.211.02.354-.032.529v.195c.101.186.022.186.022.335.113.51.192 1.198.468 1.628.074.048.14.071.14.16-.097.133-.198.308-.309.363-.371-.036-.617-.163-.666-.559-.407-.952-.562-1.988-.64-3.032-.059-.37-.065-.776-.185-1.146-.043-.231-.066-.485-.085-.738-.085-.372-.182-.758-.306-1.148-.051-.119-.393-.841-.493-.841-.195-.234-.276-.254-.572-.28-.218-.107-.345-.006-.53.088-.319.25-.451.676-.526 1.021-.004.286-.007.573-.011.857-.1.258-.178.488-.295.706-.084.088-.084.088-.184.166-.459.227-.414-.393-.42-.676-.019-.039-.039-.079-.055-.121-.036-.442-.014-.887 0-1.364.077-.185.097-.27.228-.608.135-.274.289-.546.519-.809.241-.206.488-.316.809-.43.058-.035.058-.035.13-.103m10.941 1.136c-.367.072-.977.336-1.079.693-.272.391-.272.391-.344.507-.198.432-.318.842-.403 1.27-.042.388-.084.748-.153 1.106-.042.548-.065 1.111-.172 1.634-.071.209-.155.475-.286.604-.127 0-.371-.869-.377-.896-.041-.195-.064-.247-.149-.572-.196-.909-.299-1.823-.565-2.729-.027-.362.087-.91-.176-1.239-.395-.178-.539.016-.734.315-.033.117-.066.235-.098.348.003.351.007.702.012 1.05-.047.048-.107-.03-.142-.062-.101-.114-.201-.228-.299-.341-.39-.371-.786-.614-1.339-.534-.114.069-.214.117-.306.154-.5.317-.672.78-.795 1.303-.014.09-.023.182-.033.272 0 1.079.423 2.194.828 3.158.085.105.365.394.534.267.098-.178.068-.386.198-.598.097-.396-.065-1.029-.13-1.443-.049-.109-.094-.22-.14-.334-.127-.478-.165-.932-.13-1.453-.013-.051-.013-.051-.006-.175.152-.152.572.536.624.654.064.263.149.522.237.78.004.373.007.743.01 1.114.126.22.1.458.12.682.065.367.252.663.415.981.037.037.049.03.127.03.058-.085.111-.163.14-.306 0-.878 0-.878.009-.943.098-.182.157-.318.209-.552.012-.126.007-.266.068-.416.009 0 .024-.003.036-.006.01.026.023.052.036.074.1.784.4 1.486.682 2.201.13.194.367.276.614.276.247-.101.534-.024.823-.085.289-.155.542-.351.669-.695.137-.12.205-.159.277-.364.087-.387.178-.815.25-1.235 0-.871.035-1.774.086-2.684.079-.182.134-.39.228-.598.238-.415.549-.776 1.056-.913.061-.056.166-.137.079-.247-.339-.045-.339-.045-.511-.053m2.36.586c.767.075 1.472.572 2.021 1.095.182.27.308.537.431.823.095.324.135.636.206.951-.071.234-.13.475-.194.673-.155.254-.327.465-.482.672h-.019c-.03.095-.16.172-.196.248h-.022c-.059.071-.117.143-.172.211-.189.165-.608.37-.671.559 0 .39.39.575.456.932-.012.013-.027.027-.035.039-.209 0-.401-.169-.549-.276-.096-.087-.329-.364-.427-.364-.27.078-.474.089-.717.03-.174-.173-.14-.196-.14-.471.104-.104.275-.034.275-.28-.031-.066-.031-.066-.405-.588-.267-.439-.462-.949-.602-1.459-.074-.43-.081-.826-.032-1.29.081-.397.185-.712.406-1.099.069-.074.139-.152.212-.231.216-.058.435-.116.656-.175m-2.067.292c.085.017.085.017.13.042.189.245.208.635.254.901.094.842.113 1.699.302 2.492.077.179.169.364.259.53v.998c-.038.072-.038.072-.109.25-.096.088-.096.088-.264.211-.27.075-.586-.068-.832-.097-.172-.098-.108-.166.003-.312.071-.192-.028-.469-.075-.67-.006-.24-.009-.484-.012-.728-.053-.264-.101-.526-.149-.789v-1.733c.015-.093.031-.188.051-.282.094-.231.218-.501.341-.76.039-.03.039-.03.101-.053m1.862.813c-.032.012-.065.023-.096.033-.128.421.054.893.229 1.244.082.254.075.481.143.705.256.383.465.794.63 1.209.056.055.127.003.209-.048v-.024c.146-.071.37-.419.506-.588.026-.074.052-.136.121-.227.269-.188.353-.596.353-.95-.024-.064-.051-.129-.077-.194-.029-.331-.127-.512-.436-.69-.292-.116-.584-.236-.877-.356-.196-.016-.423-.006-.575-.098-.045-.004-.088-.009-.13-.016m4.605 2.622c.019.004.042.007.065.007.587.332 1.123.587 1.4 1.238-.007.049 0 .065-.023.087-.185.003-.37.007-.556.007-.175-.029-.347-.059-.52-.088-.269-.084-.201-.045-.298-.364-.03-.162-.16-.701-.068-.887m-6.109 2.611c-.14.066-.222.07-.349.08-.21.104-.126.504-.126.666.163.413.371.826.556 1.216.185.057.097 0 .24-.124.01.001.022 0 .035 0 .037.065.011.156.049.221.134 0 .3-.292.449-.381v-.022c.11-.065.205-.257.286-.4.009-.12.009-.12.009-.65-.026-.231-.272-.474-.458-.602-.231 0-.461-.002-.691-.004" transform="matrix(1.77001376626 0 0 -1.77001376626 37.33571779613 43.71053578487)"/><g transform="matrix(.11182140921 0 0 .11182140921 5.34299026704 21.14040416224)"><path d="m161.226 240.89h-9.12c0-2.151-.822-3.254-4.667-3.254h-15.323c-2.581 0-4.395.951-4.395 3.601 0 3.147 1.87 3.557 4.395 3.557h16.641c8.404 0 12.469.791 12.469 10.455 0 7.353-3.516 10.544-12.522 10.544h-18.399c-9.722 0-12.631-3.146-12.631-9.851h9.117c0 1.698 1.923 3.299 4.501 3.299h15.27c4.01 0 5.545-1.2 5.545-3.992 0-2.507-.604-3.902-5.821-3.902h-13.509c-10.38 0-14.169-1.654-14.169-10.456 0-7.006 3.954-9.806 14.116-9.806h15.485c9.225-.001 13.017 3.102 13.017 9.805z"/><path d="m176.6 253.097v-9.264c0-4.943 1.596-6.25 7.306-6.25h11.751c5.439 0 7.306 1.155 7.306 6.205v9.255c0 4.703-1.318 5.851-7.141 5.851h-12.08c-5.547 0-7.142-1.254-7.142-5.797zm35.48.844v-10.9c0-9.762-4.339-12.357-13.785-12.357h-16.75c-10.38 0-14.061 2.845-14.061 12.357v10.9c0 8.401 3.845 11.851 14.061 11.851h16.75c10.653 0 13.785-3.191 13.785-11.851z"/><path d="m218.338 231.084h15.323l23.231 27.81h1.263v-27.81h9.115v34.708h-15.65l-22.902-27.81h-1.262v27.81h-9.118z"/><path d="m319.72 245.442v9.255c0 8.348-4.01 11.095-13.838 11.095h-18.452c-9.337 0-14.061-3.449-14.061-11.851v-10.651c0-9.308 4.119-12.606 14.061-12.606h18.286c9.226 0 14.005 2 14.005 10.651h-9.115c0-2.649-1.758-3.752-7.25-3.752h-13.456c-5.49 0-7.415 1.556-7.415 6.757v8.802c0 4.703 1.265 5.752 7.306 5.752h14.992c4.559 0 5.823-1.103 5.823-3.601v-3.699h-15.049v-6.151h24.163z"/><path d="m388.53 253.79c-.054 9.255-2.525 12.002-13.78 12.002h-16.972c-10.544 0-13.894-2.942-13.894-12.251v-9.851c0-10.162 3.57-13.007 14.772-13.007h15.158c9.006 0 14.663 2.348 14.663 12.1h-9.115c0-3.645-2.034-5.2-7.304-5.2h-11.698c-6.097 0-7.361.951-7.361 6.401v8.605c0 5.299 2.143 6.304 7.361 6.304h11.698c5.435 0 7.304-.898 7.304-5.104h9.168z"/><path d="m403.306 253.097v-9.264c0-4.943 1.592-6.25 7.304-6.25h11.753c5.437 0 7.304 1.155 7.304 6.205v9.255c0 4.703-1.315 5.851-7.139 5.851h-12.082c-5.548 0-7.14-1.254-7.14-5.797zm35.474.844v-10.9c0-9.762-4.334-12.357-13.78-12.357h-16.75c-10.382 0-14.061 2.845-14.061 12.357v10.9c0 8.401 3.845 11.851 14.061 11.851h16.75c10.655 0 13.78-3.191 13.78-11.851z"/><path d="m445.042 231.084h15.324l23.231 27.81h1.262v-27.81h9.117v34.708h-15.651l-22.903-27.81h-1.261v27.81h-9.119z"/><path d="m515.34 265.792v-27.81h-15.927v-6.898h41.136v6.898h-16.091v27.81z"/><path d="m545.106 265.792v-34.708h38.936v6.552h-29.823v7.601h28.894v6.055h-28.894v7.948h29.823v6.552z"/><path d="m633.251 240.89h-9.117c0-2.151-.822-3.254-4.668-3.254h-15.322c-2.578 0-4.393.951-4.393 3.601 0 3.147 1.867 3.557 4.393 3.557h16.643c8.401 0 12.465.791 12.465 10.455 0 7.353-3.517 10.544-12.522 10.544h-18.4c-9.717 0-12.629-3.146-12.629-9.851h9.117c0 1.698 1.921 3.299 4.504 3.299h15.27c4.005 0 5.543-1.2 5.543-3.992 0-2.507-.604-3.902-5.819-3.902h-13.509c-10.384 0-14.172-1.654-14.172-10.456 0-7.006 3.952-9.806 14.114-9.806h15.487c9.228-.001 13.015 3.102 13.015 9.805z"/><path d="m654.339 265.792v-27.81h-15.926v-6.898h41.136v6.898h-16.091v27.81z"/></g></g></svg>